<svg xmlns="http://www.w3.org/2000/svg" version="1.1" xmlns:xlink="http://www.w3.org/1999/xlink" xmlns:svgjs="http://svgjs.com/svgjs" width="1440" height="507" preserveAspectRatio="none" viewBox="0 0 1440 507"><g mask="url(&quot;#SvgjsMask1783&quot;)" fill="none"><rect width="1440" height="507" x="0" y="0" fill="#0e2a47"></rect><path d="M48 507L555 0L987 0L480 507z" fill="url(#SvgjsLinearGradient1784)"></path><path d="M363.8 507L870.8 0L1151.3 0L644.3 507z" fill="url(#SvgjsLinearGradient1784)"></path><path d="M646.6 507L1153.6 0L1494.1 0L987.1 507z" fill="url(#SvgjsLinearGradient1784)"></path><path d="M1407 507L900 0L706.5 0L1213.5 507z" fill="url(#SvgjsLinearGradient1785)"></path><path d="M1121.2 507L614.2 0L155.20000000000005 0L662.2 507z" fill="url(#SvgjsLinearGradient1785)"></path><path d="M774.4 507L267.4 0L46.89999999999998 0L553.9 507z" fill="url(#SvgjsLinearGradient1785)"></path><path d="M1104.9820466622245 507L1440 171.9820466622245L1440 507z" fill="url(#SvgjsLinearGradient1784)"></path><path d="M0 507L335.0179533377755 507L 0 171.9820466622245z" fill="url(#SvgjsLinearGradient1785)"></path></g><defs><mask id="SvgjsMask1783"><rect width="1440" height="507" fill="#ffffff"></rect></mask><linearGradient x1="0%" y1="100%" x2="100%" y2="0%" id="SvgjsLinearGradient1784"><stop stop-color="rgba(15, 70, 185, 0.2)" offset="0"></stop><stop stop-opacity="0" stop-color="rgba(15, 70, 185, 0.2)" offset="0.66"></stop></linearGradient><linearGradient x1="100%" y1="100%" x2="0%" y2="0%" id="SvgjsLinearGradient1785"><stop stop-color="rgba(15, 70, 185, 0.2)" offset="0"></stop><stop stop-opacity="0" stop-color="rgba(15, 70, 185, 0.2)" offset="0.66"></stop></linearGradient></defs></svg>